<svg id="pawty" xmlns="http://www.w3.org/2000/svg" viewBox="0 0 52.55 50"><defs><style>.cls-1{fill:#666;}</style></defs><path class="cls-1" d="M24.5,35.59A24.53,24.53,0,0,1,0,11.09V9.92H49V11.1A24.52,24.52,0,0,1,24.5,35.59ZM2.38,12.27a22.15,22.15,0,0,0,44.24,0Z"/><path class="cls-1" d="M1.18,11.09V30.27A11.63,11.63,0,0,0,12.77,41.86h0A11.63,11.63,0,0,0,24.36,30.27V11.09Z"/><path class="cls-1" d="M12.77,43A12.78,12.78,0,0,1,0,30.27V9.92H25.53V30.27A12.78,12.78,0,0,1,12.77,43ZM2.35,12.27v18a10.41,10.41,0,0,0,20.82,0v-18Z"/><circle class="cls-1" cx="31.25" cy="18.94" r="1.98"/><circle class="cls-1" cx="49.41" cy="10.11" r="3.14"/></svg>