<?xml version="1.0" encoding="utf-8"?>
<!-- Generator: Adobe Illustrator 24.3.0, SVG Export Plug-In . SVG Version: 6.00 Build 0)  -->
<svg version="1.1" id="pawty" xmlns="http://www.w3.org/2000/svg" xmlns:xlink="http://www.w3.org/1999/xlink" x="0px" y="0px"
	 viewBox="0 0 150 50" style="enable-background:new 0 0 150 50;" xml:space="preserve">
<style type="text/css">
	.st0{fill:#FFFFFF;}
</style>
<g>
	<g>
		<path class="st0" d="M24.5,35.59C10.99,35.59,0,24.6,0,11.09V9.92h49v1.18C49,24.6,38.01,35.59,24.5,35.59z M2.38,12.27
			C3,23.93,12.68,33.24,24.5,33.24s21.5-9.3,22.12-20.97H2.38z"/>
	</g>
	<g>
		<path class="st0" d="M1.18,11.09v19.18c0,6.37,5.22,11.59,11.59,11.59h0c6.37,0,11.59-5.22,11.59-11.59V11.09H1.18z"/>
		<path class="st0" d="M12.77,43.03C5.73,43.03,0,37.31,0,30.27V9.92h25.53v20.35C25.53,37.31,19.8,43.03,12.77,43.03z M2.35,12.27
			v18c0,5.74,4.67,10.41,10.41,10.41s10.41-4.67,10.41-10.41v-18H2.35z"/>
	</g>
	<g>
		<circle class="st0" cx="31.25" cy="18.94" r="1.98"/>
	</g>
	<g>
		<circle class="st0" cx="49.41" cy="10.11" r="3.14"/>
	</g>
</g>
<g>
	<path class="st0" d="M72.79,20.66c0,1.36-0.46,2.46-1.37,3.31c-1.06,1.01-2.6,1.52-4.61,1.52h-2.69v5.59
		c0,0.95,0.14,1.57,0.42,1.86c0.33,0.38,1.08,0.55,2.25,0.54v0.44h-9.85v-0.44c0.95,0.02,1.58-0.15,1.91-0.49
		c0.31-0.31,0.47-0.88,0.47-1.71V18.41c0-0.77-0.16-1.31-0.47-1.62c-0.34-0.33-0.98-0.48-1.91-0.47v-0.44h10.24
		c1.76,0,3.15,0.47,4.16,1.42C72.3,18.19,72.79,19.31,72.79,20.66z M67.69,20.71c0-1.7-0.33-2.85-0.98-3.45
		c-0.52-0.51-1.39-0.73-2.6-0.69v8.23c1.29,0.02,2.21-0.27,2.77-0.86C67.42,23.38,67.69,22.3,67.69,20.71z"/>
	<path class="st0" d="M90.28,33.92h-8.23v-0.44c0.83-0.02,1.4-0.11,1.71-0.29c0.31-0.16,0.47-0.44,0.47-0.83
		c0-0.24-0.11-0.62-0.34-1.13l-1.27-2.99h-5.39l-0.96,2.65c-0.16,0.46-0.24,0.81-0.24,1.05c0,0.56,0.16,0.95,0.49,1.18
		c0.33,0.23,0.88,0.35,1.67,0.37v0.44h-4.95v-0.47c0.57-0.05,1.02-0.25,1.35-0.61c0.34-0.38,0.7-1.09,1.08-2.16l5.24-14.8h1.27
		l6.57,16.02c0.24,0.6,0.48,1,0.71,1.2c0.2,0.2,0.47,0.31,0.83,0.34V33.92z M82.24,27.28l-2.47-6.17l-2.2,6.17H82.24z"/>
	<path class="st0" d="M116.59,16.33c-0.57,0.03-0.96,0.11-1.15,0.24c-0.24,0.16-0.47,0.52-0.69,1.08l-5.85,16.49h-1.03l-4.09-13.15
		l-4.48,13.15h-0.98l-5.24-15.73c-0.31-0.93-0.64-1.52-0.98-1.76c-0.29-0.21-0.83-0.33-1.59-0.34v-0.44h8.38v0.47
		c-0.49,0.03-0.83,0.11-1.03,0.24c-0.18,0.13-0.27,0.37-0.27,0.71c0,0.33,0.04,0.62,0.12,0.88l3.01,8.87l2.52-7.57l-0.34-1.3
		c-0.2-0.73-0.46-1.23-0.78-1.49c-0.26-0.2-0.73-0.32-1.4-0.37v-0.44h8.13v0.44c-0.56,0.02-0.93,0.07-1.13,0.17
		c-0.21,0.08-0.32,0.26-0.32,0.54c0,0.21,0.04,0.42,0.12,0.64l2.89,9.28l3.28-9.04c0.15-0.36,0.22-0.63,0.22-0.81
		c0-0.46-0.42-0.72-1.27-0.78v-0.44h3.94V16.33z"/>
	<path class="st0" d="M132.39,20.32h-0.47c-0.13-2.42-1.3-3.63-3.5-3.63h-1.49v14.38c0,0.95,0.15,1.58,0.47,1.91
		c0.28,0.31,0.89,0.47,1.84,0.49v0.44h-9.46v-0.44c0.95,0.02,1.58-0.15,1.89-0.49c0.31-0.34,0.47-0.98,0.47-1.91V16.7h-1.42
		c-2.22,0-3.41,1.21-3.58,3.63h-0.47v-4.43h15.73V20.32z"/>
	<path class="st0" d="M150,16.35c-0.59,0.1-1,0.27-1.25,0.51c-0.33,0.31-0.71,0.94-1.15,1.89l-3.53,7.5v5.1
		c0,0.78,0.16,1.33,0.49,1.64c0.34,0.34,0.98,0.51,1.91,0.49v0.44h-9.68v-0.44c0.96,0.03,1.62-0.1,1.96-0.39
		c0.34-0.31,0.51-0.88,0.51-1.71v-4.36l-4.16-8.57c-0.41-0.83-0.78-1.37-1.1-1.62c-0.26-0.2-0.73-0.35-1.42-0.47v-0.47h8.55v0.44
		c-0.64,0.02-1.05,0.07-1.25,0.15c-0.2,0.07-0.29,0.23-0.29,0.49c0,0.21,0.11,0.56,0.34,1.03l3.6,7.45l3.06-6.52
		c0.31-0.67,0.47-1.19,0.47-1.57c0-0.44-0.11-0.72-0.32-0.83c-0.23-0.11-0.7-0.18-1.42-0.2v-0.44H150V16.35z"/>
</g>
</svg>
