<svg id="圖層_1" data-name="圖層 1" xmlns="http://www.w3.org/2000/svg" viewBox="0 0 86.09 150"><defs><style>.cls-1{fill:#231815;}</style></defs><path class="cls-1" d="M74.79,150.27a43.09,43.09,0,0,1-43-43.05V43.31a43,43,0,1,1,86.08,0v63.91A43.09,43.09,0,0,1,74.79,150.27Zm0-147.56a40.64,40.64,0,0,0-40.6,40.6v63.91a40.6,40.6,0,1,0,81.2,0V43.31A40.64,40.64,0,0,0,74.79,2.71Z" transform="translate(-31.75 -0.27)"/><path class="cls-1" d="M74.65,83.7A25.44,25.44,0,0,1,49.24,58.28V57.06h50.82v1.22A25.44,25.44,0,0,1,74.65,83.7ZM51.71,59.5a23,23,0,0,0,45.88,0Z" transform="translate(-31.75 -0.27)"/><path class="cls-1" d="M50.45,58.28V78.17a12.06,12.06,0,0,0,12,12h0a12.06,12.06,0,0,0,12-12V58.28Z" transform="translate(-31.75 -0.27)"/><path class="cls-1" d="M62.48,91.42A13.27,13.27,0,0,1,49.23,78.17V57.06H75.72V78.17A13.26,13.26,0,0,1,62.48,91.42ZM51.67,59.5V78.17a10.81,10.81,0,1,0,21.61,0V59.5Z" transform="translate(-31.75 -0.27)"/><circle class="cls-1" cx="49.91" cy="66.16" r="2.05"/><circle class="cls-1" cx="68.75" cy="57" r="3.26"/><path class="cls-1" d="M82.6,26.26l-2.9.26A23,23,0,0,0,81.2,34a19.34,19.34,0,0,0,4.74,6v.58a2.82,2.82,0,0,0-1.53,1.21,13,13,0,0,0-1.14,3.74,24.66,24.66,0,0,1-3.55-7.38,64.27,64.27,0,0,1-.83-11.53l-2.77.21V45l-3.72.47V27.05c-1.2.06-2.28.11-3.24.14v7.74A12.8,12.8,0,0,1,68,40.29a13.33,13.33,0,0,1-4.36,5L63.26,45a13.39,13.39,0,0,0,1.62-4,32.09,32.09,0,0,0,.47-6.13V24.74l3.91,1.64a43.52,43.52,0,0,0,10.2-3.74l4.17,2.93c.27.19.4.36.4.5s-.16.41-.47.41A4.65,4.65,0,0,1,82.6,26.26Z" transform="translate(-31.75 -0.27)"/><path class="cls-1" d="M54.18,104.54a3.35,3.35,0,0,1-1.06,2.57,5,5,0,0,1-3.59,1.18H47.44v4.35a2.23,2.23,0,0,0,.32,1.45c.25.29.84.43,1.75.41v.35H41.85v-.35a2,2,0,0,0,1.49-.38,1.87,1.87,0,0,0,.36-1.33v-10a1.79,1.79,0,0,0-.36-1.26,2.17,2.17,0,0,0-1.49-.36v-.34h8a4.59,4.59,0,0,1,3.24,1.1A3.4,3.4,0,0,1,54.18,104.54Zm-4,0a3.65,3.65,0,0,0-.76-2.68,2.69,2.69,0,0,0-2-.54v6.41a2.8,2.8,0,0,0,2.15-.67A3.72,3.72,0,0,0,50.22,104.57Z" transform="translate(-31.75 -0.27)"/><path class="cls-1" d="M67.79,114.85h-6.4v-.35a3,3,0,0,0,1.33-.22.68.68,0,0,0,.36-.65,2.56,2.56,0,0,0-.26-.88l-1-2.32h-4.2l-.74,2a2.61,2.61,0,0,0-.19.82,1.05,1.05,0,0,0,.38.92,2.41,2.41,0,0,0,1.3.28v.35H54.53v-.36a1.52,1.52,0,0,0,1-.48,5.1,5.1,0,0,0,.84-1.68l4.08-11.51h1l5.11,12.46a2.66,2.66,0,0,0,.55.94,1.08,1.08,0,0,0,.65.27Zm-6.25-5.17-1.93-4.8-1.71,4.8Z" transform="translate(-31.75 -0.27)"/><path class="cls-1" d="M82.6,114.85H77.86l-3.55-6.54H73.6v4.33a2.45,2.45,0,0,0,.27,1.37c.24.35.76.52,1.55.49v.35H68.13v-.35a1.86,1.86,0,0,0,1.42-.38,1.71,1.71,0,0,0,.34-1.18V102.8a1.87,1.87,0,0,0-.34-1.28,2.18,2.18,0,0,0-1.51-.36v-.34h8.08c3.15,0,4.73,1.24,4.73,3.74a3.59,3.59,0,0,1-2.63,3.52l2.93,5.3a1.91,1.91,0,0,0,1.45,1.12Zm-5.43-10.33c0-2-.8-3.07-2.4-3.07H73.6v6.23h1C76.31,107.68,77.17,106.63,77.17,104.52Z" transform="translate(-31.75 -0.27)"/><path class="cls-1" d="M95,104.27h-.36q-.15-2.82-2.73-2.82H90.74v11.19a2.21,2.21,0,0,0,.36,1.48,2,2,0,0,0,1.43.38v.35H85.17v-.35a1.9,1.9,0,0,0,1.47-.38,2.25,2.25,0,0,0,.36-1.48V101.45H85.9c-1.73,0-2.66.94-2.78,2.82h-.37v-3.45H95Z" transform="translate(-31.75 -0.27)"/><path class="cls-1" d="M108.69,101.18a1.83,1.83,0,0,0-1,.4,5.21,5.21,0,0,0-.89,1.47l-2.75,5.83v4a1.72,1.72,0,0,0,.38,1.27,2,2,0,0,0,1.49.38v.35H98.42v-.35a2.31,2.31,0,0,0,1.53-.3,1.79,1.79,0,0,0,.4-1.33v-3.4l-3.24-6.67a3.73,3.73,0,0,0-.86-1.26,2.79,2.79,0,0,0-1.11-.36v-.36h6.65v.34a3.34,3.34,0,0,0-1,.12.35.35,0,0,0-.23.38,2.2,2.2,0,0,0,.27.8l2.8,5.79,2.38-5.07a3,3,0,0,0,.37-1.22c0-.34-.09-.56-.25-.64a3.22,3.22,0,0,0-1.11-.16v-.34h3.64Z" transform="translate(-31.75 -0.27)"/><path class="cls-1" d="M61.18,120.91a1.53,1.53,0,0,1-.15.67,1.08,1.08,0,0,1-.48.51,2.12,2.12,0,0,1-1,.22H58.53v1.47a1,1,0,0,1,0,.36.28.28,0,0,1-.27.16.33.33,0,0,1-.23-.1c-.06,0-.08-.19-.08-.42v-3.7c0-.24,0-.39.1-.45a.91.91,0,0,1,.47-.07h1.11a1.86,1.86,0,0,1,1.1.27A1.27,1.27,0,0,1,61.18,120.91Zm-.63,0a.88.88,0,0,0-.23-.62,1.25,1.25,0,0,0-.89-.24h-.9v1.75h.9C60.17,121.81,60.55,121.51,60.55,120.92Z" transform="translate(-31.75 -0.27)"/><path class="cls-1" d="M68.33,124a.3.3,0,0,1-.09.2.29.29,0,0,1-.22.09.25.25,0,0,1-.22-.11,1.55,1.55,0,0,1-.14-.29l-.42-1H65.16l-.4,1a1,1,0,0,1-.14.29.27.27,0,0,1-.21.1.29.29,0,0,1-.22-.09.26.26,0,0,1-.09-.19.89.89,0,0,1,.1-.32L65.67,120a2.3,2.3,0,0,1,.2-.4.38.38,0,0,1,.32-.15.39.39,0,0,1,.31.13,2.5,2.5,0,0,1,.21.42l1.53,3.64A1.13,1.13,0,0,1,68.33,124Zm-1.28-1.64-.87-2.18-.84,2.18Z" transform="translate(-31.75 -0.27)"/><path class="cls-1" d="M76.73,119.75s0,.09,0,.3l-1,3.72a1.46,1.46,0,0,1-.14.38.3.3,0,0,1-.28.15.34.34,0,0,1-.3-.14,1.46,1.46,0,0,1-.14-.38l-.95-3.5-1,3.5a1.46,1.46,0,0,1-.14.38.33.33,0,0,1-.29.14.32.32,0,0,1-.29-.15,1.46,1.46,0,0,1-.14-.38l-1-3.72a1.19,1.19,0,0,1-.06-.3.3.3,0,0,1,.09-.19.29.29,0,0,1,.21-.08.25.25,0,0,1,.23.13.91.91,0,0,1,.1.3l.84,3.41.89-3.29a1.1,1.1,0,0,1,.14-.36.34.34,0,0,1,.31-.13.43.43,0,0,1,.35.12,1.31,1.31,0,0,1,.15.37l.89,3.29.83-3.41a1.24,1.24,0,0,1,.1-.3.25.25,0,0,1,.23-.13.26.26,0,0,1,.22.1A.25.25,0,0,1,76.73,119.75Z" transform="translate(-31.75 -0.27)"/><path class="cls-1" d="M83,119.81A.25.25,0,0,1,83,120a.59.59,0,0,1-.37.08H81.52v3.72a.66.66,0,0,1-.09.43.33.33,0,0,1-.22.09.33.33,0,0,1-.23-.09.66.66,0,0,1-.09-.43v-3.72h-1c-.2,0-.32,0-.36-.07a.26.26,0,0,1-.09-.18.25.25,0,0,1,.08-.17c0-.06.17-.08.37-.08h2.74c.2,0,.32,0,.37.09A.23.23,0,0,1,83,119.81Z" transform="translate(-31.75 -0.27)"/><path class="cls-1" d="M89.46,119.75a.71.71,0,0,1-.16.35l-1.39,2.12v1.56a.65.65,0,0,1-.1.43.29.29,0,0,1-.22.09.33.33,0,0,1-.22-.09.66.66,0,0,1-.09-.43v-1.56l-1.34-2.08a.84.84,0,0,1-.16-.37.28.28,0,0,1,.3-.29.24.24,0,0,1,.18.07s.1.13.19.27l1.16,1.85,1.2-1.87.14-.21a.33.33,0,0,1,.23-.11.3.3,0,0,1,.2.08A.27.27,0,0,1,89.46,119.75Z" transform="translate(-31.75 -0.27)"/><path class="cls-1" d="M75.21,139.86A33.39,33.39,0,0,1,51.43,130l1.15-1.15a32,32,0,0,0,45.26,0L99,130A33.39,33.39,0,0,1,75.21,139.86Z" transform="translate(-31.75 -0.27)"/><path class="cls-1" d="M97.88,21.59a32,32,0,0,0-45.26,0l-1.15-1.15a33.63,33.63,0,0,1,47.56,0Z" transform="translate(-31.75 -0.27)"/></svg>